<svg xmlns="http://www.w3.org/2000/svg" fill="none" viewBox="0 0 56 40"><g fill="#B46964" clip-path="url(#a)"><path d="M47.15.125c-1.337.187-2.725.587-3.8 1.1-.575.262-3.038 1.637-5.488 3.062l-4.437 2.575L23.063 6.3c-12.188-.65-11.075-.725-13.313.8-.787.537-1.563 1.162-1.713 1.4-.587.862-.237 2.012.75 2.463.288.137 2.763 1.075 5.5 2.1 2.725 1.024 4.963 1.887 4.963 1.925 0 .037-.212.187-.475.337-.25.138-1.3.738-2.337 1.325l-1.875 1.088-5.188-.563c-5.862-.637-6.525-.65-7.6-.1-.737.387-1.262 1.063-1.275 1.65 0 .825.225 1.037 4.638 4.35 2.35 1.762 4.587 3.35 4.975 3.525.8.362 2.55.525 3.274.3.238-.075 3.4-1.075 7.038-2.212 3.625-1.138 6.613-2.063 6.637-2.038.013.025-.575 3.6-1.3 7.95l-1.325 7.9.25.462c.375.688 1 1.075 1.638 1 .675-.075 3.75-1.825 4.45-2.537.613-.625.538-.487 7.15-13.612 2.875-5.713 5.3-10.438 5.375-10.525.075-.075 1.5-.925 3.163-1.888 3.337-1.938 3.825-2.25 5.1-3.288 1.537-1.237 3.25-3.225 3.55-4.1.3-.887.075-1.862-.588-2.55-.512-.537-.887-.687-2.563-1.037-1.712-.35-3.637-.463-4.812-.3Zm4.263 1.937c1.787.325 2.087.5 2.087 1.138 0 .325-.175.625-.862 1.45-2 2.387-2.575 2.762-13.2 8.762-2.063 1.15-2.3 1.413-1.925 2.063.3.55.825.513 1.95-.125a32.83 32.83 0 0 1 1.075-.588c.062-.024-.225.6-.638 1.375-.413.788-2.775 5.476-5.275 10.425-2.487 4.95-4.688 9.2-4.875 9.438-.2.275-.925.775-1.887 1.325-.85.487-1.563.875-1.588.862-.012-.012.613-3.924 1.413-8.674 1.487-8.926 1.487-8.976 1.012-9.288-.287-.2-.762-.088-1.625.387-1.137.626-13.962 4.676-14.825 4.688-1.175.012-1.525-.175-5.763-3.363-2.224-1.675-4.062-3.1-4.087-3.162-.063-.2.613-.4 1.388-.4.425 0 3.1.25 5.95.563 3.937.412 5.237.512 5.437.412.275-.138 3.037-1.738 17.45-10.063 4.638-2.675 9.025-5.212 9.75-5.625C44.212 2.6 45.55 2.1 47.25 1.837c.938-.15 2.688-.05 4.163.225ZM21.688 7.937c4.537.238 8.425.45 8.625.463.312.037-.438.5-4.325 2.75l-4.7 2.713-5.613-2.125A1770.59 1770.59 0 0 1 9.762 9.5c-.274-.125-.237-.175.813-.888 1.313-.912 1.7-1.1 2.363-1.112.274 0 4.212.2 8.75.437Z"/><path d="M43.462 4.975c-.312.35-.262.85.188 1.638.538.974.825 1.262 1.25 1.262.413 0 .85-.388.85-.775 0-.262-.75-1.737-1.1-2.137-.25-.288-.925-.276-1.188.012ZM39.75 7.125c-.138.138-.25.375-.25.525 0 .263.75 1.738 1.1 2.125.25.3.925.287 1.188 0 .412-.45.162-1.25-.75-2.5-.35-.475-.9-.537-1.288-.15ZM36 9.338c-.325.412-.288.612.388 1.775.537.925.812 1.112 1.425.962a.72.72 0 0 0 .45-.425c.112-.287.075-.45-.276-1.138-.224-.437-.537-.962-.712-1.15-.4-.474-.913-.487-1.275-.024ZM32.4 11.325c-.387.275-.35.813.125 1.663.563 1.012.825 1.262 1.3 1.262.438 0 .8-.35.8-.787 0-.275-.825-1.788-1.15-2.113-.275-.275-.7-.287-1.075-.025ZM28.688 13.563c-.175.162-.313.4-.313.524 0 .4 1.05 2.088 1.4 2.263.413.2.888.012 1.088-.45.125-.275.1-.425-.263-1.125-.75-1.475-1.313-1.825-1.913-1.213ZM24.988 15.6a.78.78 0 0 0-.276.6c0 .525.988 2.163 1.4 2.313.413.162.838-.026 1.038-.463.138-.3.1-.438-.337-1.262-.713-1.363-1.213-1.675-1.825-1.188ZM21.325 17.762c-.45.35-.412.726.137 1.713.563 1 .826 1.275 1.2 1.275.4 0 .838-.438.838-.837 0-.45-.975-2.113-1.337-2.276-.4-.187-.45-.175-.838.125Z"/></g><defs><clipPath id="a"><path fill="#fff" d="M.5 0h54.75v40H.5z"/></clipPath></defs></svg>