<svg xmlns="http://www.w3.org/2000/svg" fill="none" viewBox="0 0 50 40"><mask id="a" fill="#fff"><path fill-rule="evenodd" d="M43.08 3.555C39.685 1.58 36.788 0 36.63 0c-.132.026-3.581.816-7.637 1.79L21.62 3.556C1.606 20.698 1.237 21.067 1.817 21.409c.261.152 1.914 1.082 3.91 2.204l1.277.719 1.062.591c2.199 1.225 4.284 2.386 4.942 2.727l1.37.763L42.158 16.59c6.978-7.9 7.742-8.9 7.452-9.138-.184-.184-3.107-1.922-6.53-3.897Zm6.847 15.905-.131-9.77-6.952 8.059c0 9.506.026 9.716.447 9.216.264-.316 1.844-2.107 3.555-4.029l3.081-3.476Zm-8.321-.58c-.026-.394-.184-.71-.29-.71-.131.026-6.083 2.607-13.245 5.767l-13.035 5.74c-.132 9.454-.105 9.796.316 9.665.263-.08 6.293-2.528 13.43-5.478l12.982-5.319c-.053-6.926-.105-9.27-.158-9.664ZM1.053 22.41.5 22.04l.053 10.376C10.243 38.288 13.113 40 13.193 40c.052 0 .131-2.344.131-5.24v-5.24c-9.085-5.215-11.981-6.9-12.271-7.11ZM34.707 6.978l-1.607.896c-2.106-1.185-2.66-1.343-3.028-1.212-.526.185-.526.21.053.632.317.238.843.632 1.132.843.553.369.316.527-4.53 3.134-4.845 2.58-5.055 2.738-4.476 3.08.527.343.737.29 2.107-.395.816-.42 3.133-1.658 5.135-2.764L33.1 9.19c2.66 1.58 3.134 1.765 3.503 1.554.237-.132.447-.29.447-.369 0-.079-.632-.5-1.369-.948l-1.396-.816c2.239-1.211 2.976-1.633 3.108-1.738.105-.105-.106-.316-.448-.5-.553-.237-.869-.158-2.238.605Z" clip-rule="evenodd"/></mask><path fill="#B46964" d="M36.629 0v-1.778h-.176l-.173.035L36.63 0Zm6.452 3.555-.894 1.537.005.003.889-1.54ZM28.992 1.791l.414 1.729h.002l-.416-1.73ZM21.62 3.555l-.414-1.729-.417.1-.325.279 1.156 1.35ZM1.817 21.409l-.905 1.53.009.005.896-1.535Zm3.91 2.204-.872 1.55.872-1.55Zm1.277.719-.871 1.55.007.003.864-1.553Zm1.062.591.865-1.553-.865 1.553Zm4.942 2.727.866-1.553-.024-.014-.025-.012-.817 1.579Zm1.37.763-.866 1.553.76.424.802-.34-.697-1.637ZM42.158 16.59l.696 1.636.37-.158.266-.301-1.332-1.177Zm7.452-9.138L48.354 8.71l.063.063.069.056 1.125-1.376Zm.185 2.239 1.777-.024-.063-4.685-3.06 3.547 1.346 1.162Zm.131 9.77 1.33 1.178.457-.515-.01-.688-1.777.024Zm-7.083-1.712-1.346-1.162-.432.5v.662h1.778Zm.447 9.216 1.36 1.145.006-.007-1.366-1.138Zm3.555-4.029 1.328 1.182.003-.003-1.33-1.179Zm-5.53-4.766v-1.778h-.176l-.172.035.348 1.743Zm.29.71-1.774.12.004.058.008.058 1.762-.235Zm-13.535 5.057.716 1.627h.001l-.717-1.627Zm-13.035 5.74-.717-1.627-1.045.46-.016 1.143 1.778.024Zm.316 9.665-.511-1.703-.01.003-.01.003.53 1.697Zm13.43-5.478-.674-1.645-.005.002.679 1.643Zm12.982-5.319.674 1.645 1.113-.456-.01-1.202-1.777.013ZM.5 22.041l.986-1.48-2.78-1.853.016 3.342L.5 22.04Zm.553.369 1.046-1.438-.03-.022-.03-.02-.986 1.48Zm-.5 10.006-1.778.01.005.995.851.516.922-1.52Zm12.771-2.897h1.778V28.49l-.893-.512-.885 1.541ZM33.1 7.874l-.871 1.55.867.487.87-.485-.866-1.552Zm1.607-.896.865 1.553-.865-1.553Zm-4.635-.316.587 1.678.011-.004-.598-1.674Zm.053.632 1.067-1.422-.011-.008-.01-.007-1.046 1.437Zm0 0L29.06 8.718l1.067-1.422Zm1.132.843-1.046 1.438.03.021.03.02.986-1.48Zm-4.53 3.134.837 1.569.006-.004-.842-1.565Zm-4.476 3.08.969-1.49-.032-.02-.032-.02-.905 1.53Zm2.107-.395.795 1.59.01-.005.01-.005-.815-1.58Zm5.135-2.764.86 1.556.002-.002-.862-1.554ZM33.1 9.19l.908-1.528-.877-.522-.893.496.862 1.554Zm3.503 1.554-.864-1.554-.009.005-.01.005.883 1.544Zm-.922-1.317.923-1.52-.013-.007-.012-.007-.898 1.534Zm-1.396-.816-.846-1.564-2.778 1.504 2.727 1.595.897-1.535Zm3.108-1.738 1.11 1.388.077-.061.07-.07-1.257-1.257Zm-.448-.5.843-1.566-.07-.037-.073-.031-.7 1.634Zm-.316-4.595c-.273 0-.478-.068-.486-.07-.056-.017-.094-.032-.102-.035-.02-.007-.017-.007.02.01.07.032.184.089.35.175.327.168.795.42 1.373.737 1.154.634 2.715 1.515 4.403 2.497l1.787-3.074a221.226 221.226 0 0 0-4.478-2.54 67.706 67.706 0 0 0-1.455-.78c-.18-.093-.345-.176-.478-.238a3.99 3.99 0 0 0-.224-.097 2.264 2.264 0 0 0-.179-.062c-.027-.008-.248-.079-.531-.079v3.556Zm-7.221 1.741a782.374 782.374 0 0 1 7.414-1.74l.156-.036-.698-3.486c-.173.034-3.662.834-7.703 1.805l.83 3.457Zm-7.375 1.765 7.373-1.764L28.58.062l-7.374 1.764.828 3.458ZM2.72 19.878a1.49 1.49 0 0 1 .296.242c.202.214.4.55.435.98a1.5 1.5 0 0 1-.123.747c-.048.103-.086.147-.06.112.145-.191.626-.69 1.918-1.858 2.5-2.257 7.57-6.615 17.589-15.196l-2.313-2.7c-9.996 8.561-15.115 12.96-17.659 15.258C1.575 18.573.822 19.302.435 19.81a2.974 2.974 0 0 0-.336.548c-.1.216-.228.58-.19 1.033.088 1.072.969 1.527 1.003 1.547l1.81-3.06Zm3.877 2.186c-2.01-1.13-3.64-2.047-3.886-2.19l-1.791 3.07c.278.163 1.952 1.104 3.934 2.219l1.743-3.1Zm1.278.718-1.278-.718-1.743 3.099 1.278.718 1.743-3.099Zm1.055.588L7.87 22.78l-1.73 3.106 1.062.591 1.73-3.106Zm4.894 2.7c-.626-.323-2.674-1.464-4.894-2.7l-1.73 3.106c2.178 1.213 4.3 2.396 4.99 2.753l1.634-3.158Zm1.418.79-1.369-.763-1.732 3.105 1.37.764 1.731-3.105Zm26.22-11.906L13.68 26.778l1.393 3.271 27.781-11.823-1.392-3.272Zm7.023-6.126a1.647 1.647 0 0 1-.594-1.422c.032-.305.145-.474.106-.404-.056.101-.25.387-.769 1.026-.998 1.232-2.905 3.426-6.402 7.385l2.664 2.354c3.481-3.94 5.445-6.197 6.5-7.5.51-.629.888-1.13 1.112-1.531.1-.18.28-.528.326-.964a1.908 1.908 0 0 0-.692-1.696l-2.252 2.752Zm-6.294-3.733c1.707.985 3.286 1.908 4.458 2.607.587.35 1.066.64 1.406.851a16.701 16.701 0 0 1 .45.289c.036.026-.05-.031-.152-.133l2.514-2.514c-.124-.124-.255-.217-.283-.237a5.756 5.756 0 0 0-.185-.127 20.285 20.285 0 0 0-.467-.298 98.026 98.026 0 0 0-1.462-.885 385.823 385.823 0 0 0-4.502-2.633l-1.777 3.08Zm5.826 4.62.132 9.77 3.555-.049-.132-9.77-3.555.049ZM44.19 18.91l6.952-8.058-2.693-2.323-6.951 8.058 2.692 2.323Zm-2.258 6.91c-.107.126.05-.096.334-.26a1.7 1.7 0 0 1 1.24-.174c.6.142.918.542 1.042.739.193.307.2.565.176.4a6.175 6.175 0 0 1-.039-.505c-.056-1.121-.064-3.488-.064-8.271h-3.555c0 4.723.006 7.214.068 8.45.016.312.037.592.07.827.021.145.08.59.336.995a1.86 1.86 0 0 0 1.142.823 1.855 1.855 0 0 0 1.354-.2 2.09 2.09 0 0 0 .445-.346c.076-.077.139-.15.17-.188l-2.72-2.29Zm3.587-4.066c-1.7 1.908-3.306 3.728-3.593 4.073l2.731 2.276c.24-.287 1.793-2.048 3.517-3.985l-2.655-2.364Zm3.078-3.473-3.081 3.476 2.66 2.358 3.082-3.476-2.661-2.358Zm-7.28 1.667c-.435 0-.756-.161-.93-.274a1.576 1.576 0 0 1-.347-.306 1.167 1.167 0 0 1-.179-.28.44.44 0 0 1-.026-.075l-.003-.014 3.548-.236a3.33 3.33 0 0 0-.26-1.096 2.399 2.399 0 0 0-.356-.584c-.096-.115-.584-.69-1.448-.69v3.555Zm-12.529 5.615c3.58-1.578 6.855-3.012 9.251-4.054 1.199-.522 2.175-.944 2.86-1.237a105.903 105.903 0 0 1 .988-.418l.024-.01-.035.013-.057.018a1.702 1.702 0 0 1-.154.038l-.697-3.486c-.127.025-.229.061-.232.062a2.154 2.154 0 0 0-.174.066l-.245.1a634.57 634.57 0 0 0-3.695 1.592 1981.13 1981.13 0 0 0-9.269 4.063l1.435 3.253Zm-13.036 5.741 13.035-5.74-1.433-3.254-13.035 5.74 1.433 3.254Zm-.93 6.34c.012-.003.12-.038.272-.054.165-.017.434-.018.74.096.672.251.897.798.94.914.047.128.04.18.025.04a8.529 8.529 0 0 1-.036-.597c-.04-1.196-.016-3.588.05-8.34l-3.555-.05c-.065 4.7-.093 7.206-.048 8.512.011.332.028.62.055.864.024.219.067.515.174.804.102.277.397.903 1.151 1.184.658.246 1.233.04 1.292.021l-1.06-3.393Zm13.28-5.423a2031.125 2031.125 0 0 1-9.283 3.812c-1.215.495-2.214.9-2.924 1.185-.783.314-1.09.432-1.054.42l1.022 3.407c.167-.05.713-.27 1.358-.528.717-.288 1.721-.695 2.94-1.191 2.435-.992 5.73-2.343 9.3-3.819l-1.358-3.286ZM41.09 26.9l-12.982 5.32 1.348 3.29 12.982-5.32-1.348-3.29Zm-1.246-7.784c0-.005.01.124.025.529.012.369.025.904.038 1.65.027 1.492.053 3.802.08 7.264l3.555-.027a796.288 796.288 0 0 0-.08-7.3c-.025-1.438-.05-2.26-.094-2.586l-3.524.47ZM-.486 23.52l.553.369 1.972-2.959-.553-.368-1.972 2.958Zm2.816 8.887-.052-10.375-3.556.018.053 10.375 3.555-.018Zm10.863 5.815c.3 0 .527.08.54.085a1.67 1.67 0 0 1 .192.075l.019.01-.057-.031c-.087-.049-.23-.13-.443-.255-.423-.247-1.085-.64-2.053-1.22a2658.11 2658.11 0 0 1-9.917-5.99l-1.843 3.04c4.846 2.937 7.99 4.835 9.932 5.999.97.582 1.646.983 2.087 1.24.219.129.389.226.511.294.06.033.123.068.183.098a2.354 2.354 0 0 0 .296.123c.019.007.25.088.553.088v-3.556Zm-1.647-3.462c0 1.433-.02 2.727-.045 3.657-.013.467-.027.831-.04 1.072a5.319 5.319 0 0 1-.016.222c-.002.022 0-.015.012-.077.004-.018.024-.128.076-.264a1.775 1.775 0 0 1 1.66-1.147v3.555a1.781 1.781 0 0 0 1.67-1.161c.054-.146.078-.27.085-.305.019-.098.029-.188.034-.236.011-.112.02-.248.028-.388.017-.29.032-.692.045-1.173.027-.966.047-2.292.047-3.755h-3.556Zm0-5.24v5.24h3.556v-5.24h-3.556ZM.007 23.846c.158.115.487.313.902.559.461.273 1.14.67 2.09 1.22 1.9 1.102 4.898 2.828 9.44 5.435l1.77-3.084c-4.542-2.606-7.535-4.33-9.427-5.427-.947-.549-1.614-.939-2.06-1.204-.494-.292-.636-.384-.623-.374L.007 23.847Zm33.959-14.42 1.606-.896-1.73-3.106-1.607.896 1.731 3.105Zm-3.296-1.09c-.415.148-.68-.02-.37.098.312.12.876.396 1.929.988l1.743-3.099c-1.053-.592-1.82-.988-2.403-1.21-.585-.224-1.311-.406-2.095-.126l1.196 3.348Zm.5-2.48c-.161-.118-.198-.148-.196-.147.002.002.076.066.163.18.076.103.282.402.319.858.043.54-.172.976-.407 1.247a1.536 1.536 0 0 1-.43.35c-.083.045-.13.055.04-.005l-1.174-3.356c-.094.033-.337.115-.55.23-.068.036-1.123.57-1.023 1.817.04.497.266.841.38.994.125.165.255.286.33.352.148.13.33.262.457.355l2.091-2.875Zm.022.015-2.134 2.844 2.134-2.844Zm0 0-2.134 2.845 2.134-2.844Zm1.11.827c-.275-.2-.789-.585-1.11-.826L29.06 8.717c.31.233.85.638 1.152.858l2.092-2.876Zm-4.732 6.137c2.364-1.272 3.757-2.025 4.457-2.509a4.05 4.05 0 0 0 .584-.476c.16-.163.493-.535.6-1.107a1.946 1.946 0 0 0-.421-1.607c-.218-.263-.47-.428-.547-.48l-1.972 2.96c.061.04-.077-.04-.22-.213a1.61 1.61 0 0 1-.334-1.317c.087-.465.345-.715.362-.732.042-.043.04-.031-.072.047-.492.339-1.64.968-4.122 2.303l1.685 3.131Zm-4.414-.015c-.069-.04.063.026.208.178.194.203.511.672.423 1.328-.07.515-.356.798-.376.818-.05.05-.055.044.055-.032.478-.33 1.617-.952 4.098-2.273L25.892 9.7c-2.365 1.26-3.753 2.007-4.447 2.487a3.913 3.913 0 0 0-.585.48 2.109 2.109 0 0 0-.597 1.182c-.103.76.255 1.317.53 1.604.226.237.477.383.554.428l1.809-3.061Zm.407-.454c-.344.171-.575.283-.747.358-.18.078-.21.078-.165.069a.857.857 0 0 1 .183-.014c.089.003.177.017.259.04.146.04.214.098.127.041l-1.938 2.981c.177.115.468.293.845.4.42.118.822.115 1.199.043.584-.113 1.228-.439 1.827-.738l-1.59-3.18Zm5.07-2.731a266.79 266.79 0 0 1-5.09 2.74l1.63 3.16c.836-.431 3.169-1.677 5.18-2.788l-1.72-3.112Zm3.605-2L28.63 9.637l1.725 3.11 3.608-2.002-1.725-3.11ZM35.721 9.2c.209-.119.471-.18.712-.158.147.013.178.05-.01-.032-.376-.165-1.06-.543-2.415-1.348l-1.816 3.057c1.305.775 2.189 1.278 2.807 1.549.308.134.693.277 1.116.315.516.046.977-.07 1.37-.296L35.72 9.2Zm-.448 1.175c0-.371.118-.645.186-.778a1.57 1.57 0 0 1 .192-.291c.083-.099.15-.15.154-.154.019-.015-.003.003-.066.038l1.727 3.108c.175-.097.377-.223.56-.37.087-.07.22-.184.35-.338.055-.066.452-.517.452-1.215h-3.555Zm-.515.572c.355.215.667.414.88.56.112.076.166.117.18.129.012.01-.031-.024-.093-.09a1.72 1.72 0 0 1-.453-1.171h3.556c0-.527-.233-.89-.286-.975a1.96 1.96 0 0 0-.224-.286 2.61 2.61 0 0 0-.256-.236 6.448 6.448 0 0 0-.416-.306c-.287-.196-.66-.432-1.042-.664l-1.846 3.039Zm-1.37-.801 1.395.816 1.796-3.07-1.396-.816-1.795 3.07Zm2.894-4.661c.077-.062.11-.075-.027.007-.103.062-.262.153-.497.285-.468.263-1.201.666-2.319 1.27l1.693 3.127c1.12-.606 1.875-1.02 2.368-1.297.245-.138.436-.247.578-.332.107-.064.282-.17.425-.284l-2.22-2.776Zm-.18 2.453c.09.048.037.037-.07-.078a1.474 1.474 0 0 1-.33-.613 1.688 1.688 0 0 1 .435-1.631l2.513 2.514a1.87 1.87 0 0 0 .48-1.825 2.087 2.087 0 0 0-.489-.86 3.301 3.301 0 0 0-.853-.638l-1.686 3.13Zm-.53.593c.335-.187.574-.314.755-.401.089-.043.153-.07.2-.09.046-.018.066-.023.065-.023a.69.69 0 0 1-.23.01c-.113-.012-.17-.043-.117-.02l1.4-3.268a3.116 3.116 0 0 0-.898-.247 2.9 2.9 0 0 0-1.075.091c-.57.153-1.184.482-1.831.843l1.732 3.105Z" mask="url(#a)"/></svg>