<svg xmlns="http://www.w3.org/2000/svg" viewBox="0 0 512 512" xml:space="preserve"><g fill="#b46964" xmlns="http://www.w3.org/2000/svg"><path d="M412.6 215.27h-3.06a131.97 131.97 0 0 1-12.93-49.5c8.86-.26 16-7.5 16-16.43v-16.49c0-9.1-7.4-16.48-16.49-16.48h-3.95c-17.2-25.47-46.2-41.22-77.08-41.22H297.2V58.67c0-3.92-1.43-7.48-3.73-10.32a24.08 24.08 0 0 0-9.65-34.44L256 0l-27.83 13.91a24.08 24.08 0 0 0-9.65 34.44 16.32 16.32 0 0 0-3.73 10.32v16.48H196.9c-30.88 0-59.89 15.76-77.08 41.22h-3.95a16.5 16.5 0 0 0-16.49 16.48v16.49c0 8.92 7.14 16.17 16.01 16.43a131.99 131.99 0 0 1-12.93 49.5H99.4a16.5 16.5 0 0 0-16.49 16.49v33.85c0 71.46 37.32 138.27 97.7 176l-5.23 20.94h-10.05a16.5 16.5 0 0 0-16.48 16.48v16.49c0 9.09 7.4 16.48 16.48 16.48h181.34c9.09 0 16.48-7.4 16.48-16.48v-16.49c0-9.1-7.4-16.48-16.48-16.48h-10.05l-5.23-20.94c60.38-37.74 97.7-104.54 97.7-176v-33.84c0-9.1-7.4-16.5-16.48-16.5zm-257.82-49.45-1.69 6.73a12.85 12.85 0 0 1-12.48 9.75c-3.78 0-7.28-1.73-9.7-4.55.55-3.96.99-7.93 1.2-11.93zm-32.58 45.45c2-5.14 3.71-10.4 5.13-15.74a29.24 29.24 0 0 0 13.28 3.26 29.3 29.3 0 0 0 28.47-22.24l2.69-10.73h15.98l-3.93 15.72a44.48 44.48 0 0 1-61.62 29.73zm76.1-21.32c3.3 9.91 8.92 18.5 16.24 25.33h-32.47a60.61 60.61 0 0 0 16.23-25.33zm14.49-8.41-3.94-15.72h15.99l2.68 10.73c3.27 13.1 14.98 22.24 28.48 22.24s25.21-9.14 28.48-22.24l2.68-10.73h15.99l-3.94 15.72c-4.97 19.85-22.73 33.73-43.21 33.73s-38.24-13.87-43.21-33.73zm29.04-15.72h28.34l-1.68 6.73a12.86 12.86 0 0 1-24.98 0zm71.87 24.13c3.3 9.91 8.92 18.5 16.23 25.33h-32.47a60.62 60.62 0 0 0 16.24-25.33zm14.48-8.41-3.93-15.72h15.98l2.69 10.73a29.3 29.3 0 0 0 28.47 22.24c4.7 0 9.22-1.19 13.28-3.26 1.42 5.35 3.12 10.6 5.13 15.75a44.49 44.49 0 0 1-61.62-29.74zm51.7-15.72c.22 4 .66 7.97 1.2 11.94a12.84 12.84 0 0 1-9.7 4.55c-5.91 0-11.05-4.01-12.48-9.76l-1.68-6.73zm-8.65-49.45H325.9L306.1 91.64h8.97c21.46 0 41.79 9.27 56.15 24.73zm-90.5-57.7v16.48h-49.46V58.67zM227 91.64h20.76v24.73H207.2zm37.24 0h20.77l19.78 24.73h-40.55V91.64zm-28.7-62.97L256 18.43l20.46 10.23a7.7 7.7 0 0 1 4.27 6.9 7.8 7.8 0 0 1-2.26 5.47l-1.15 1.16h-42.63l-1.16-1.16a7.77 7.77 0 0 1-2.26-5.46 7.67 7.67 0 0 1 4.27-6.9zm-38.63 62.97h8.97l-19.78 24.73h-45.34c14.37-15.46 34.7-24.73 56.15-24.73zm-81.03 41.21h280.24v16.49H115.89zm296.73 98.9v16.5H99.4v-16.5zm-65.94 263.76H165.33v-16.48h181.34zm-154.3-32.96 4.13-16.49h119l4.12 16.49zm127.2-32.97H192.43C135 395.2 99.4 332.6 99.4 265.62v-.88h313.2v.88c0 67-35.61 129.6-93.03 163.96z" data-original="#000000" /><path d="M297.21 314.18h-16.48V297.7c0-9.1-7.4-16.49-16.49-16.49h-16.48a16.5 16.5 0 0 0-16.49 16.49v16.48H214.8a16.5 16.5 0 0 0-16.49 16.49v16.48c0 9.1 7.4 16.49 16.49 16.49h16.48v32.97c0 9.09 7.4 16.48 16.49 16.48h16.48c9.1 0 16.49-7.39 16.49-16.48v-32.97h16.48c9.1 0 16.49-7.4 16.49-16.49v-16.48a16.5 16.5 0 0 0-16.49-16.49zm0 32.97h-32.97v49.46h-16.48v-49.46h-32.97v-16.48h32.97V297.7h16.48v32.97h32.97z" data-original="#000000" /></g></svg>